<?xml version="1.0" encoding="UTF-8" standalone="no"?>
<svg
   xmlns:dc="http://purl.org/dc/elements/1.1/"
   xmlns:cc="http://creativecommons.org/ns#"
   xmlns:rdf="http://www.w3.org/1999/02/22-rdf-syntax-ns#"
   xmlns:svg="http://www.w3.org/2000/svg"
   xmlns="http://www.w3.org/2000/svg"
   width="173.41025mm"
   height="123.48483mm"
   viewBox="0 0 173.41025 123.48483"
   version="1.1"
   id="svg8">
  <defs
     id="defs2">
    <linearGradient
       x1="107.28935"
       y1="1.8633864e-06"
       x2="107.28935"
       y2="214.72729"
       id="linearGradient-1"
       gradientTransform="matrix(0.80761689,0,0,0.56785562,71.966667,124.35417)"
       gradientUnits="userSpaceOnUse">
      <stop
         stop-color="#E52D27"
         offset="0%"
         id="stop833" />
      <stop
         stop-color="#BF171D"
         offset="100%"
         id="stop835" />
    </linearGradient>
  </defs>
  <metadata
     id="metadata5">
    <rdf:RDF>
      <cc:Work
         rdf:about="">
        <dc:format>image/svg+xml</dc:format>
        <dc:type
           rdf:resource="http://purl.org/dc/dcmitype/StillImage" />
        <dc:title></dc:title>
      </cc:Work>
    </rdf:RDF>
  </metadata>
  <g
     id="layer1"
     transform="translate(-71.966687,-123.29583)">
    <path
       d="m 243.54916,151.15898 c 0,0 -1.69236,-11.91884 -6.90482,-17.20106 -6.56635,-6.90752 -13.94502,-6.90752 -17.39743,-7.31384 -24.16686,-1.76074 -60.5187,-1.76074 -60.5187,-1.76074 h -0.0677 c 0,0 -36.35183,0 -60.654081,1.76074 -3.384688,0.40632 -10.763366,0.40632 -17.397406,7.31384 -5.144766,5.28222 -6.837123,17.20106 -6.837123,17.20106 0,0 -1.760052,14.08592 -1.760052,28.10411 v 13.13782 c 0,14.01819 1.760052,28.03639 1.760052,28.03639 0,0 1.692357,11.91884 6.904817,17.20106 6.566346,6.90752 15.231215,6.70435 19.089791,7.38156 13.877332,1.35442 58.894032,1.76074 58.894032,1.76074 0,0 36.41953,-0.0677 60.65408,-1.82846 3.38472,-0.40632 10.76339,-0.40632 17.39744,-7.31384 5.21246,-5.28222 6.90481,-17.20106 6.90481,-17.20106 0,0 1.76006,-14.0182 1.76006,-28.03639 v -13.13782 c -0.0677,-14.01819 -1.82775,-28.10411 -1.82775,-28.10411 z m -102.75993,57.1563 v -48.6912 l 46.84445,24.44718 z"
       fill="url(#linearGradient-1)"
       id="path844-9"
       style="fill:#c43218;fill-opacity:1;stroke-width:0.677207" />
    <path
       d="m 243.54916,149.57147 c 0,0 -1.69236,-11.91884 -6.90482,-17.20106 -6.56635,-6.90752 -13.94502,-6.90752 -17.39743,-7.31384 -24.16686,-1.76074 -60.5187,-1.76074 -60.5187,-1.76074 h -0.0677 c 0,0 -36.35183,0 -60.65408,1.76074 -3.38469,0.40632 -10.76337,0.40632 -17.39741,7.31384 -5.14476,5.28222 -6.83712,17.20106 -6.83712,17.20106 0,0 -1.76005,14.08592 -1.76005,28.10411 v 13.13782 c 0,14.01819 1.76005,28.03639 1.76005,28.03639 0,0 1.69236,11.91884 6.90482,17.20106 6.56634,6.90752 15.23121,6.70435 19.08979,7.38156 13.87733,1.35442 58.89403,1.76074 58.89403,1.76074 0,0 36.41953,-0.0677 60.65408,-1.82846 3.38472,-0.40632 10.76339,-0.40632 17.39744,-7.31384 5.21246,-5.28222 6.90481,-17.20106 6.90481,-17.20106 0,0 1.76006,-14.0182 1.76006,-28.03639 v -13.13782 c -0.0677,-14.01819 -1.82775,-28.10411 -1.82775,-28.10411 z m -102.75993,57.1563 v -48.6912 l 46.84445,24.44718 z"
       fill="url(#linearGradient-1)"
       id="path844-1"
       style="fill:#ef583f;fill-opacity:1;stroke-width:0.677207" />
    <path
       d="m 243.504,150.62981 c 0,0 -1.69236,-11.91884 -6.90482,-17.20106 -6.56635,-6.90752 -13.94502,-6.90752 -17.39743,-7.31384 -24.16686,-1.76074 -60.5187,-1.76074 -60.5187,-1.76074 h -0.0677 c 0,0 -36.35183,0 -60.654082,1.76074 -3.384688,0.40632 -10.763366,0.40632 -17.397406,7.31384 -5.144766,5.28222 -6.837123,17.20106 -6.837123,17.20106 0,0 -1.760052,14.08592 -1.760052,28.10411 v 13.13782 c 0,14.01819 1.760052,28.03639 1.760052,28.03639 0,0 1.692357,11.91884 6.904817,17.20106 6.566346,6.90752 15.231215,6.70435 19.089791,7.38156 13.877333,1.35442 58.894033,1.76074 58.894033,1.76074 0,0 36.41953,-0.0677 60.65408,-1.82846 3.38472,-0.40632 10.76339,-0.40632 17.39744,-7.31384 5.21246,-5.28222 6.90481,-17.20106 6.90481,-17.20106 0,0 1.76006,-14.0182 1.76006,-28.03639 v -13.13782 c -0.0677,-14.01819 -1.82775,-28.10411 -1.82775,-28.10411 z m -102.75993,57.1563 v -48.6912 l 46.84445,24.44718 z"
       fill="url(#linearGradient-1)"
       id="path844"
       style="fill:#ec3618;fill-opacity:1;stroke-width:0.677207" />
    <g
       id="g926">
      <path
         d="m 140.77093,207.25694 46.86275,-24.24402 -46.86275,-24.44718 z"
         fill="#ffffff"
         id="path840-5"
         style="fill:#c43218;fill-opacity:1;stroke-width:0.677207" />
      <path
         d="m 140.72577,208.31528 46.86275,-24.24402 -46.86275,-24.44718 z"
         fill="#ffffff"
         id="path840-8"
         style="fill:#ef583f;fill-opacity:1;stroke-width:0.677207" />
      <path
         d="m 140.77093,207.78611 46.86275,-24.24402 -46.86275,-24.44718 z"
         fill="#ffffff"
         id="path840"
         style="stroke-width:0.677207" />
      <path
         d="m 140.77093,159.09491 41.10649,27.42689 5.75626,-2.97971 z"
         opacity="0.12"
         fill="#420000"
         id="path842"
         style="opacity:0.868852;fill:#c0c8c0;fill-opacity:1;stroke-width:0.677207" />
    </g>
  </g>
</svg>
